<?xml version="1.0" encoding="UTF-8" standalone="no"?>
<!-- Created with Inkscape (http://www.inkscape.org/) -->

<svg
   version="1.1"
   id="svg2"
   width="1056"
   height="816"
   viewBox="0 0 1056 816"
   sodipodi:docname="askcompany_emblem.ai"
   xmlns:inkscape="http://www.inkscape.org/namespaces/inkscape"
   xmlns:sodipodi="http://sodipodi.sourceforge.net/DTD/sodipodi-0.dtd"
   xmlns="http://www.w3.org/2000/svg"
   xmlns:svg="http://www.w3.org/2000/svg">
  <defs
     id="defs6">
    <clipPath
       clipPathUnits="userSpaceOnUse"
       id="clipPath16">
      <path
         d="M 0,612 H 792 V 0 H 0 Z"
         id="path14" />
    </clipPath>
    <clipPath
       clipPathUnits="userSpaceOnUse"
       id="clipPath92">
      <path
         d="M 354.558,329.321 H 462.64 V 298.843 H 354.558 Z"
         id="path90" />
    </clipPath>
  </defs>
  <sodipodi:namedview
     id="namedview4"
     pagecolor="#ffffff"
     bordercolor="#000000"
     borderopacity="0.25"
     inkscape:showpageshadow="2"
     inkscape:pageopacity="0.0"
     inkscape:pagecheckerboard="0"
     inkscape:deskcolor="#d1d1d1" />
  <g
     id="g8"
     inkscape:groupmode="layer"
     inkscape:label="askcompany_emblem"
     transform="matrix(1.3333333,0,0,-1.3333333,0,816)">
    <g
       id="g10">
      <g
         id="g12"
         clip-path="url(#clipPath16)">
        <g
           id="g18"
           transform="translate(397.0391,314.4834)">
          <path
             d="M 0,0 -0.009,0.009 0.015,0.041 C 1.854,5.171 6.103,10.914 13.564,17.491 -3.895,-22.387 80.705,-24.704 60.217,-65.962 54.199,-38.018 -10.132,-28.446 0,0"
             style="fill:#216db2;fill-opacity:1;fill-rule:nonzero;stroke:none"
             id="path20" />
        </g>
        <g
           id="g22"
           transform="translate(397.0391,314.4834)">
          <path
             d="M 0,0 -0.009,0.009 0.015,0.041 C 1.854,5.171 6.103,10.914 13.564,17.491 -3.895,-22.387 80.705,-24.704 60.217,-65.962 54.199,-38.018 -10.132,-28.446 0,0 Z"
             style="fill:none;stroke:#2f302f;stroke-width:1.5;stroke-linecap:butt;stroke-linejoin:miter;stroke-miterlimit:10;stroke-dasharray:none;stroke-opacity:1"
             id="path24" />
        </g>
        <g
           id="g26"
           transform="translate(399.7646,316.8169)">
          <path
             d="m 0,0 c 0,0 -2.997,-6.795 4.514,-15.293 0,0 7.094,-7.546 18.011,-13.269 0,0 17.754,-10.162 23.147,-15.535 0,0 8.144,-6.159 12.525,-17.104 0,0 -5.79,11.055 -18.843,18.973 0,0 -24.5,14.994 -25.966,16.034 0,0 -9.076,6.304 -11.375,10.169 0,0 -6.256,7.962 -2.013,16.025"
             style="fill:#231f20;fill-opacity:1;fill-rule:evenodd;stroke:none"
             id="path28" />
        </g>
        <g
           id="g30"
           transform="translate(395.5698,314.4834)">
          <path
             d="M 0,0 0.008,0.009 -0.015,0.041 C -1.854,5.171 -6.102,10.914 -13.564,17.491 3.894,-22.387 -80.706,-24.704 -60.217,-65.962 -54.199,-38.018 10.132,-28.446 0,0"
             style="fill:#fcd233;fill-opacity:1;fill-rule:nonzero;stroke:none"
             id="path32" />
        </g>
        <g
           id="g34"
           transform="translate(395.5698,314.4834)">
          <path
             d="M 0,0 0.008,0.009 -0.015,0.041 C -1.854,5.171 -6.102,10.914 -13.564,17.491 3.894,-22.387 -80.706,-24.704 -60.217,-65.962 -54.199,-38.018 10.132,-28.446 0,0 Z"
             style="fill:none;stroke:#2f302f;stroke-width:1.5;stroke-linecap:butt;stroke-linejoin:miter;stroke-miterlimit:10;stroke-dasharray:none;stroke-opacity:1"
             id="path36" />
        </g>
        <g
           id="g38"
           transform="translate(392.8442,316.8169)">
          <path
             d="m 0,0 c 0,0 2.997,-6.795 -4.514,-15.293 0,0 -7.095,-7.546 -18.011,-13.269 0,0 -17.754,-10.162 -23.147,-15.535 0,0 -8.145,-6.159 -12.525,-17.104 0,0 5.789,11.055 18.842,18.973 0,0 24.501,14.994 25.967,16.034 0,0 9.075,6.304 11.375,10.169 0,0 6.257,7.962 2.013,16.025"
             style="fill:#231f20;fill-opacity:1;fill-rule:evenodd;stroke:none"
             id="path40" />
        </g>
        <g
           id="g42"
           transform="translate(359.5776,363.542)">
          <path
             d="m 0,0 c 4.22,-0.653 8.416,-3.365 10.353,-6.651 1.494,-2.532 1.858,-4.928 -0.674,-6.935 -5.355,-4.245 -10.266,2.413 -15.194,2.81 -2.491,0.203 -2.16,-2.322 -0.79,-4.266 3.352,-4.743 11.465,-11.049 19.362,-17.209 0.736,-0.571 2.787,-2.011 3.514,-2.579 -0.661,-0.523 -1.321,-1.041 -1.979,-1.567 -0.06,0.045 -0.143,0.106 -0.228,0.168 l -4.073,-1.725 c -0.032,-0.026 -0.064,-0.052 -0.096,-0.079 -1.71,-1.417 -3.488,-2.914 -5.144,-4.496 -9.576,7.457 -18.819,15.974 -19.238,26.695 C -14.539,-6.875 -10.14,1.578 0,0"
             style="fill:#216db2;fill-opacity:1;fill-rule:evenodd;stroke:none"
             id="path44" />
        </g>
        <g
           id="g46"
           transform="translate(359.5776,363.542)">
          <path
             d="m 0,0 c 4.22,-0.653 8.416,-3.365 10.353,-6.651 1.494,-2.532 1.858,-4.928 -0.674,-6.935 -5.355,-4.245 -10.266,2.413 -15.194,2.81 -2.491,0.203 -2.16,-2.322 -0.79,-4.266 3.352,-4.743 11.465,-11.049 19.362,-17.209 0.736,-0.571 2.787,-2.011 3.514,-2.579 -0.661,-0.523 -1.321,-1.041 -1.979,-1.567 -0.06,0.045 -0.143,0.106 -0.228,0.168 l -4.073,-1.725 c -0.032,-0.026 -0.064,-0.052 -0.096,-0.079 -1.71,-1.417 -3.488,-2.914 -5.144,-4.496 -9.576,7.457 -18.819,15.974 -19.238,26.695 C -14.539,-6.875 -10.14,1.578 0,0 Z"
             style="fill:none;stroke:#2f302f;stroke-width:1.5;stroke-linecap:butt;stroke-linejoin:miter;stroke-miterlimit:10;stroke-dasharray:none;stroke-opacity:1"
             id="path48" />
        </g>
        <g
           id="g50"
           transform="translate(359.0806,359.1353)">
          <path
             d="m 0,0 c 0,0 3.721,0.492 5.087,-1.553 0,0 0.644,-1.082 -0.939,-1.541 0,0 -1.201,-0.348 -2.568,0.908 0,0 -0.302,0.087 -1.58,2.186"
             style="fill:#231f20;fill-opacity:1;fill-rule:evenodd;stroke:none"
             id="path52" />
        </g>
        <g
           id="g54"
           transform="translate(373.5029,326.9609)">
          <path
             d="m 0,0 c 0,0 -11.28,8.099 -16.603,13.538 0,0 -8.323,7.624 -7.245,11.866 0,0 -3.329,-4.113 6.998,-14.675 0,0 8.187,-7.99 13.477,-11.521 z"
             style="fill:#231f20;fill-opacity:1;fill-rule:evenodd;stroke:none"
             id="path56" />
        </g>
        <g
           id="g58"
           transform="translate(436.8037,364.3291)">
          <path
             d="m 0,0 c -4.22,-0.653 -8.416,-3.365 -10.353,-6.651 -1.494,-2.533 -1.858,-4.928 0.674,-6.935 5.355,-4.245 10.267,2.413 15.195,2.81 2.49,0.203 2.159,-2.323 0.789,-4.266 -3.352,-4.743 -11.465,-11.049 -19.362,-17.209 -0.736,-0.572 -2.787,-2.011 -3.513,-2.579 0.661,-0.523 1.32,-1.042 1.978,-1.568 0.061,0.046 0.143,0.107 0.229,0.169 l 4.072,-1.725 c 0.032,-0.026 0.063,-0.052 0.096,-0.079 1.71,-1.417 3.488,-2.914 5.144,-4.496 9.576,7.457 18.819,15.974 19.238,26.695 C 14.538,-6.876 10.14,1.577 0,0"
             style="fill:#fcd233;fill-opacity:1;fill-rule:evenodd;stroke:none"
             id="path60" />
        </g>
        <g
           id="g62"
           transform="translate(436.8037,364.3291)">
          <path
             d="m 0,0 c -4.22,-0.653 -8.416,-3.365 -10.353,-6.651 -1.494,-2.533 -1.858,-4.928 0.674,-6.935 5.355,-4.245 10.267,2.413 15.195,2.81 2.49,0.203 2.159,-2.323 0.789,-4.266 -3.352,-4.743 -11.465,-11.049 -19.362,-17.209 -0.736,-0.572 -2.787,-2.011 -3.513,-2.579 0.661,-0.523 1.32,-1.042 1.978,-1.568 0.061,0.046 0.143,0.107 0.229,0.169 l 4.072,-1.725 c 0.032,-0.026 0.063,-0.052 0.096,-0.079 1.71,-1.417 3.488,-2.914 5.144,-4.496 9.576,7.457 18.819,15.974 19.238,26.695 C 14.538,-6.876 10.14,1.577 0,0 Z"
             style="fill:none;stroke:#2f302f;stroke-width:1.5;stroke-linecap:butt;stroke-linejoin:miter;stroke-miterlimit:10;stroke-dasharray:none;stroke-opacity:1"
             id="path64" />
        </g>
        <g
           id="g66"
           transform="translate(437.3008,359.9224)">
          <path
             d="m 0,0 c 0,0 -3.721,0.492 -5.087,-1.553 0,0 -0.644,-1.082 0.939,-1.541 0,0 1.202,-0.348 2.568,0.907 0,0 0.302,0.088 1.58,2.187"
             style="fill:#231f20;fill-opacity:1;fill-rule:evenodd;stroke:none"
             id="path68" />
        </g>
        <g
           id="g70"
           transform="translate(422.8779,327.748)">
          <path
             d="m 0,0 c 0,0 11.28,8.099 16.604,13.538 0,0 8.323,7.624 7.245,11.866 0,0 3.328,-4.113 -6.999,-14.675 0,0 -8.186,-7.99 -13.477,-11.522 z"
             style="fill:#231f20;fill-opacity:1;fill-rule:evenodd;stroke:none"
             id="path72" />
        </g>
        <g
           id="g74"
           transform="translate(433.1475,279.4902)">
          <path
             d="m 0,0 c 1.678,22.067 -7.292,33.875 -16.68,39.65 -11.728,7.214 -26.664,7.214 -38.392,0 C -64.46,33.875 -73.429,22.067 -71.752,0 c -0.258,-3.871 -6.366,-15.267 14.109,-19.85 h 0.861 v -2.691 c 0,-2.945 2.388,-5.334 5.334,-5.334 2.946,0 5.334,2.389 5.334,5.334 v -3.613 c 0,-2.946 2.388,-5.334 5.334,-5.334 2.946,0 5.334,2.388 5.334,5.334 0,-2.946 2.388,-5.334 5.334,-5.334 h 10e-4 c 2.945,0 5.334,2.388 5.334,5.334 v 3.613 c 0,-2.945 2.387,-5.334 5.334,-5.334 2.945,0 5.334,2.389 5.334,5.334 v 2.691 C 6.366,-15.267 0.258,-3.871 0,0"
             style="fill:#ffffff;fill-opacity:1;fill-rule:nonzero;stroke:none"
             id="path76" />
        </g>
        <g
           id="g78"
           transform="translate(433.1475,279.4902)">
          <path
             d="m 0,0 c 1.678,22.067 -7.292,33.875 -16.68,39.65 -11.728,7.214 -26.664,7.214 -38.392,0 C -64.46,33.875 -73.429,22.067 -71.752,0 c -0.258,-3.871 -6.366,-15.267 14.109,-19.85 h 0.861 v -2.691 c 0,-2.945 2.388,-5.334 5.334,-5.334 2.946,0 5.334,2.389 5.334,5.334 v -3.613 c 0,-2.946 2.388,-5.334 5.334,-5.334 2.946,0 5.334,2.388 5.334,5.334 0,-2.946 2.388,-5.334 5.334,-5.334 h 10e-4 c 2.945,0 5.334,2.388 5.334,5.334 v 3.613 c 0,-2.945 2.387,-5.334 5.334,-5.334 2.945,0 5.334,2.389 5.334,5.334 v 2.691 C 6.366,-15.267 0.258,-3.871 0,0 Z"
             style="fill:none;stroke:#2f302f;stroke-width:1.5;stroke-linecap:butt;stroke-linejoin:miter;stroke-miterlimit:10;stroke-dasharray:none;stroke-opacity:1"
             id="path80" />
        </g>
        <g
           id="g82"
           transform="translate(459.9824,329.2959)">
          <path
             d="m 0,0 c -1.133,-0.562 -12.463,-4.253 -16.642,-4.253 -9.629,0.566 -13.595,11.189 -17.986,20.819 -8.185,15.147 -22.312,15.864 -26.044,15.774 -0.616,-0.015 -1.233,-0.015 -1.849,0 -3.731,0.09 -17.86,-0.627 -26.044,-15.774 -4.391,-9.63 -8.356,-20.253 -17.987,-20.819 -4.178,0 -15.508,3.691 -16.641,4.253 -1.133,0.562 -3.776,-0.288 -2.136,-3.545 1.64,-3.257 10.315,-11.295 14.776,-15.438 2.67,-2.479 5.987,-6.327 8.22,-9.016 1.542,-1.858 3.996,-2.69 6.353,-2.161 6.426,1.442 20.061,4.06 34.383,4.06 14.323,0 27.958,-2.618 34.384,-4.06 2.357,-0.529 4.811,0.303 6.353,2.161 2.233,2.689 5.549,6.537 8.219,9.016 C -8.179,-14.84 0.495,-6.802 2.136,-3.545 3.775,-0.288 1.133,0.562 0,0"
             style="fill:#231f20;fill-opacity:1;fill-rule:nonzero;stroke:none"
             id="path84" />
        </g>
        <g
           id="g86">
          <g
             id="g88" />
          <g
             id="g100">
            <g
               clip-path="url(#clipPath92)"
               opacity="0.5"
               id="g98">
              <g
                 transform="translate(462.1182,325.6152)"
                 id="g96">
                <path
                   d="M 0,0 C 1.64,3.257 -1.003,4.107 -2.136,3.545 -2.758,3.236 -6.457,1.984 -10.357,0.917 l -13.786,-12.879 c -4.201,-3.926 -10.014,-5.652 -15.669,-4.608 -13.914,2.569 -42.236,5.731 -67.747,-4.263 h -0.001 c 1.129,-1.284 2.198,-2.546 3.091,-3.621 1.543,-1.858 3.996,-2.691 6.353,-2.161 6.426,1.442 20.061,4.06 34.384,4.06 14.322,0 27.958,-2.618 34.383,-4.06 2.357,-0.53 4.811,0.303 6.353,2.161 2.233,2.689 5.55,6.537 8.22,9.016 C -10.314,-11.295 -1.64,-3.258 0,0"
                   style="fill:#231f20;fill-opacity:1;fill-rule:nonzero;stroke:none"
                   id="path94" />
              </g>
            </g>
          </g>
        </g>
        <g
           id="g102"
           transform="translate(377.666,295.8594)">
          <path
             d="m 0,0 c -2.488,0.521 -7.53,-0.899 -7.53,-0.899 1.593,-0.099 4.843,-1.525 4.843,-1.525 0,0 -3.371,-4.337 -2.529,-9.482 0,0 -2.933,1.638 -3.528,2.214 0,0 3.175,-4.761 4.808,-5.864 0,0 7.828,-4.029 16.709,-3.427 l 2.382,2.474 2.64,-0.45 z"
             style="fill:#231f20;fill-opacity:1;fill-rule:nonzero;stroke:none"
             id="path104" />
        </g>
        <g
           id="g106"
           transform="translate(422.5361,283.9531)">
          <path
             d="m 0,0 c 0.841,5.146 -2.529,9.482 -2.529,9.482 0,0 3.25,1.426 4.842,1.525 0,0 -5.041,1.421 -7.53,0.899 l -17.795,-16.959 2.64,0.45 2.383,-2.474 c 8.88,-0.602 16.709,3.428 16.709,3.428 1.633,1.102 4.807,5.863 4.807,5.863 C 2.933,1.639 0,0 0,0"
             style="fill:#231f20;fill-opacity:1;fill-rule:nonzero;stroke:none"
             id="path108" />
        </g>
        <g
           id="g110"
           transform="translate(413.3369,288.2852)">
          <path
             d="m 0,0 c 1.455,-0.59 2.481,-2.015 2.481,-3.682 0,-2.194 -1.778,-3.972 -3.972,-3.972 -1.99,0 -3.634,1.464 -3.923,3.374 z"
             style="fill:#216db2;fill-opacity:1;fill-rule:nonzero;stroke:none"
             id="path112" />
        </g>
        <g
           id="g114"
           transform="translate(393.3911,266.3076)">
          <path
             d="m 0,0 c 0,0 0.199,-2.118 1.809,-2.938 l 2.292,1.994 2.294,-1.994 C 8.003,-2.118 8.204,0 8.204,0 L 4.101,4.482 Z"
             style="fill:#231f20;fill-opacity:1;fill-rule:nonzero;stroke:none"
             id="path116" />
        </g>
        <g
           id="g118"
           transform="translate(391.9595,295.7021)">
          <path
             d="m 0,0 c -1.408,-1.249 -2.701,-2.565 -3.881,-3.957 l -0.141,0.954 c 0.438,-0.199 0.882,-0.389 1.314,-0.6 l 0.805,-0.392 -0.643,-0.729 c -1.433,-1.627 -2.88,-3.233 -4.34,-4.828 -1.458,-1.595 -2.933,-3.174 -4.41,-4.752 -1.487,-1.569 -2.984,-3.131 -4.501,-4.679 -1.535,-1.535 -3.067,-3.075 -4.698,-4.541 1.117,1.888 2.373,3.672 3.667,5.427 1.313,1.74 2.685,3.432 4.107,5.081 1.432,1.64 2.905,3.245 4.435,4.794 1.528,1.552 3.106,3.054 4.738,4.497 l 0.162,-1.121 c -0.411,0.25 -0.811,0.521 -1.216,0.782 l -0.706,0.456 0.565,0.499 C -3.313,-1.846 -1.715,-0.779 0,0"
             style="fill:#221f20;fill-opacity:1;fill-rule:nonzero;stroke:none"
             id="path120" />
        </g>
        <g
           id="g122"
           transform="translate(381.5664,288.2852)">
          <path
             d="m 0,0 c -1.455,-0.59 -2.482,-2.015 -2.482,-3.682 0,-2.194 1.779,-3.972 3.973,-3.972 1.99,0 3.633,1.464 3.923,3.374 z"
             style="fill:#fcd233;fill-opacity:1;fill-rule:nonzero;stroke:none"
             id="path124" />
        </g>
        <text
           xml:space="preserve"
           transform="matrix(0.96288605,0,-0.26990822,-0.86162386,377.653,321.8402)"
           style="font-variant:normal;font-weight:normal;font-stretch:normal;font-size:28.4282px;font-family:Takota;-inkscape-font-specification:Takota;writing-mode:lr-tb;fill:#ffffff;fill-opacity:1;fill-rule:nonzero;stroke:none"
           id="text128"><tspan
             x="0 14.725799 24.362951"
             y="0"
             sodipodi:role="line"
             id="tspan126">Ask</tspan></text>
      </g>
    </g>
  </g>
</svg>
